<svg xmlns="http://www.w3.org/2000/svg" widh=100% height=100%>
	<path d="M 0,60 q 60 60 120 0 q 60 -60 120 0 q 60 60 120 0 q 60 -60 120 0 q 60 60 120 0 q 60 -60 120 0 q 60 60 120 0q 60 -60 120 0 q 60 60 120 0 q 60 -60 120 0 q 60 60 120 0 l 0 10000 l -880 0 z" stroke=#A4E49C stroke-width="5" fill=#A4E49C opacity="0.5"/>
	<path d="M 0,60 q 60 -60 120 0 q 60 60 120 0 q 60 -60 120 0 q 60 60 120 0 q 60 -60 120 0 q 60 60 120 0 q 60 -60 120 0q 60 60 120 0 q 60 -60 120 0 q 60 60 120 0 q 60 -60 120 0 l 0 10000 l -880 0 z" stroke="rgba(115, 205, 255)" stroke-width="5" fill="rgb(115, 205, 255)" opacity="0.5"/>
</svg>
