<?xml version="1.0"?>
<svg xmlns="http://www.w3.org/2000/svg" width="1000" height="5000">
<!-- <path d="M 0 60 q 60 60 120 0 q 60 -60 120 0 q 60 60 120 0 q 60 -60 120 0 q 60 60 120 0 q 60 -60 120 0 q 60 60 120 0q 60 -60 120 0 q 60 60 120 0 q 60 -60 120 0 q 60 60 120 0 L 0 20000 l -880 0 z" stroke="#A4E49C" stroke-width="5" fill="#A4E49C" opacity="0.5"/>
<path d="M 0 60 q 60 -60 120 0 q 60 60 120 0 q 60 -60 120 0 q 60 60 120 0 q 60 -60 120 0 q 60 60 120 0 q 60 -60 120 0q 60 60 120 0 q 60 -60 120 0 q 60 60 120 0 q 60 -60 120 0 L 0 20000 l -880 0 z" stroke="rgba(115, 205, 255)" stroke-width="5" fill="rgb(115, 205, 255)" opacity="0.5"/> -->
<path d="M 0 30 q 90 90 180 0 q 90 -90 180 0 q 90 90 180 0 q 90 -90 180 0 q 90 90 180 0 q 90 -90 180 0 L 0 30000 l -880 0 z" stroke="#A4E49C" stroke-width="5" fill="#A4E49C" opacity="0.5"/>
<path d="M 0 30 q 90 -90 180 0 q 90 90 180 0 q 90 -90 180 0 q 90 90 180 0 q 90 -90 180 0 q 90 90 180 0 L 0 30000 l -880 0 z" stroke="rgba(115, 205, 255)" stroke-width="5" fill="rgb(115, 205, 255)" opacity="0.5"/>
</svg>
